<mxfile host="65bd71144e">
    <diagram id="Vn69fAL1uj2AF1fN2Vhi" name="Page-1">
        <mxGraphModel dx="1126" dy="790" grid="1" gridSize="10" guides="1" tooltips="1" connect="1" arrows="1" fold="1" page="1" pageScale="1" pageWidth="850" pageHeight="1100" math="0" shadow="0">
            <root>
                <mxCell id="0"/>
                <mxCell id="1" parent="0"/>
                <mxCell id="2" value="Timer 1 25m" style="rounded=0;whiteSpace=wrap;html=1;fillColor=#e1d5e7;strokeColor=#9673a6;fontColor=#000000;" vertex="1" parent="1">
                    <mxGeometry x="72" y="90" width="120" height="60" as="geometry"/>
                </mxCell>
                <mxCell id="3" value="Timer 2 5m" style="rounded=0;whiteSpace=wrap;html=1;fillColor=#e1d5e7;strokeColor=#9673a6;fontColor=#000000;" vertex="1" parent="1">
                    <mxGeometry x="72" y="167" width="120" height="60" as="geometry"/>
                </mxCell>
                <mxCell id="4" value="Timer 1 25m" style="rounded=0;whiteSpace=wrap;html=1;fillColor=#e1d5e7;strokeColor=#9673a6;fontColor=#000000;" vertex="1" parent="1">
                    <mxGeometry x="72" y="244" width="120" height="60" as="geometry"/>
                </mxCell>
                <mxCell id="5" value="Timer 2 5m" style="rounded=0;whiteSpace=wrap;html=1;fillColor=#e1d5e7;strokeColor=#9673a6;fontColor=#000000;" vertex="1" parent="1">
                    <mxGeometry x="72" y="321" width="120" height="60" as="geometry"/>
                </mxCell>
                <mxCell id="6" value="Timer 1 25m" style="rounded=0;whiteSpace=wrap;html=1;fillColor=#e1d5e7;strokeColor=#9673a6;fontColor=#000000;" vertex="1" parent="1">
                    <mxGeometry x="72" y="551" width="120" height="60" as="geometry"/>
                </mxCell>
                <mxCell id="7" value="Timer 3 15m" style="rounded=0;whiteSpace=wrap;html=1;fillColor=#e1d5e7;strokeColor=#9673a6;fontColor=#000000;" vertex="1" parent="1">
                    <mxGeometry x="72" y="628" width="120" height="60" as="geometry"/>
                </mxCell>
                <mxCell id="8" value="count = 1" style="rounded=0;whiteSpace=wrap;html=1;fillColor=#dae8fc;strokeColor=#6c8ebf;fontColor=#000000;" vertex="1" parent="1">
                    <mxGeometry x="360" y="90" width="120" height="60" as="geometry"/>
                </mxCell>
                <mxCell id="9" value="count = 2" style="rounded=0;whiteSpace=wrap;html=1;fillColor=#dae8fc;strokeColor=#6c8ebf;fontColor=#000000;" vertex="1" parent="1">
                    <mxGeometry x="365" y="250" width="120" height="60" as="geometry"/>
                </mxCell>
                <mxCell id="10" value="count = 3" style="rounded=0;whiteSpace=wrap;html=1;fillColor=#dae8fc;strokeColor=#6c8ebf;fontColor=#000000;" vertex="1" parent="1">
                    <mxGeometry x="365" y="397" width="120" height="60" as="geometry"/>
                </mxCell>
                <mxCell id="11" value="Timer 1 25m" style="rounded=0;whiteSpace=wrap;html=1;fillColor=#e1d5e7;strokeColor=#9673a6;fontColor=#000000;" vertex="1" parent="1">
                    <mxGeometry x="72" y="397" width="120" height="60" as="geometry"/>
                </mxCell>
                <mxCell id="12" value="Timer 2 5m" style="rounded=0;whiteSpace=wrap;html=1;fillColor=#e1d5e7;strokeColor=#9673a6;fontColor=#000000;" vertex="1" parent="1">
                    <mxGeometry x="72" y="474" width="120" height="60" as="geometry"/>
                </mxCell>
                <mxCell id="13" value="count = 4" style="rounded=0;whiteSpace=wrap;html=1;fillColor=#dae8fc;strokeColor=#6c8ebf;fontColor=#000000;" vertex="1" parent="1">
                    <mxGeometry x="365" y="551" width="120" height="60" as="geometry"/>
                </mxCell>
                <mxCell id="14" value="reset Count&lt;br&gt;Start Timer 1" style="rounded=1;whiteSpace=wrap;html=1;fillColor=#ffe6cc;strokeColor=#d79b00;fontColor=#000000;" vertex="1" parent="1">
                    <mxGeometry x="230" y="628" width="120" height="60" as="geometry"/>
                </mxCell>
                <mxCell id="15" value="Run timer 1&lt;br&gt;count += 1&lt;br&gt;wait&lt;br&gt;If count &amp;lt; 4&lt;br&gt;Start Timer 2&lt;br&gt;else Start timer 3" style="rounded=1;whiteSpace=wrap;html=1;fillColor=#ffe6cc;strokeColor=#d79b00;fontColor=#000000;" vertex="1" parent="1">
                    <mxGeometry x="220" y="60" width="120" height="90" as="geometry"/>
                </mxCell>
                <mxCell id="16" value="Run timer 2&lt;br&gt;wait&lt;br&gt;Start Timer 1" style="rounded=1;whiteSpace=wrap;html=1;fillColor=#ffe6cc;strokeColor=#d79b00;fontColor=#000000;" vertex="1" parent="1">
                    <mxGeometry x="220" y="167" width="120" height="60" as="geometry"/>
                </mxCell>
                <mxCell id="18" value="Timer(min){&lt;br&gt;let ms = min * 60 000;&lt;br&gt;&amp;nbsp;&lt;br&gt;&lt;br&gt;const time = currTime&lt;br&gt;let interval 0.250s =&amp;gt;&amp;nbsp;&lt;br&gt;&lt;span style=&quot;white-space: pre&quot;&gt;&#9;&lt;/span&gt;let diff = now = - curr Time&lt;br&gt;&lt;br&gt;&lt;span style=&quot;white-space: pre&quot;&gt;&lt;span style=&quot;white-space: pre&quot;&gt;&#9;&lt;/span&gt;ms -= diff&lt;br/&gt;&lt;/span&gt;&lt;span style=&quot;white-space: pre&quot;&gt;&#9;&lt;/span&gt;&lt;br&gt;&lt;span style=&quot;white-space: pre&quot;&gt;&#9;&lt;/span&gt;format ms&lt;br&gt;&lt;span style=&quot;white-space: pre&quot;&gt;&#9;&lt;/span&gt;&lt;br&gt;&lt;span style=&quot;white-space: pre&quot;&gt;&#9;&lt;/span&gt;if ms &amp;lt; 0 stop interval, start timer 2&lt;br&gt;&lt;span style=&quot;white-space: pre&quot;&gt;&#9;&lt;/span&gt;&lt;br&gt;&lt;span style=&quot;white-space: pre&quot;&gt;&#9;&lt;/span&gt;return format ms&lt;br&gt;}" style="rounded=0;whiteSpace=wrap;html=1;fillColor=#d5e8d4;strokeColor=#82b366;fontColor=#000000;verticalAlign=top;align=left;" vertex="1" parent="1">
                    <mxGeometry x="580" y="90" width="250" height="280" as="geometry"/>
                </mxCell>
            </root>
        </mxGraphModel>
    </diagram>
</mxfile>